<svg width="36" height="36" viewBox="0 0 36 36" fill="none" xmlns="http://www.w3.org/2000/svg">
<path fill-rule="evenodd" clip-rule="evenodd" d="M18 35.7637C27.665 35.7637 35.5 27.9287 35.5 18.2637C35.5 8.59869 27.665 0.763672 18 0.763672C8.33502 0.763672 0.5 8.59869 0.5 18.2637C0.5 27.9287 8.33502 35.7637 18 35.7637ZM25.0365 9.61617C25.9318 9.22311 26.8891 10.0178 26.7332 11.0247L24.4273 25.9214C24.2871 26.8269 23.3231 27.299 22.5737 26.829L15.8925 22.6393C15.1962 22.2026 15.0813 21.1913 15.6601 20.5945L21.6276 14.442C21.8412 14.2217 21.5687 13.8663 21.3187 14.039L13.0285 19.7666C12.4157 20.1899 11.6557 20.3055 10.9539 20.082L7.27683 18.911C6.611 18.699 6.56404 17.7266 7.20602 17.4447L25.0365 9.61617Z" fill="#1E1E1E"/>
</svg>
