<svg width="38" height="38" viewBox="0 0 38 38" fill="none" xmlns="http://www.w3.org/2000/svg">
<path d="M19 0.149414C15.4152 0.149414 11.9109 1.23659 8.9303 3.27345C5.94966 5.31031 3.62653 8.20539 2.25469 11.5926C0.882853 14.9798 0.523918 18.7069 1.22327 22.3027C1.92263 25.8985 3.64887 29.2015 6.1837 31.7939C8.71852 34.3864 11.9481 36.1518 15.464 36.8671C18.9799 37.5823 22.6242 37.2153 25.9361 35.8122C29.2481 34.4092 32.0788 32.0333 34.0704 28.9849C36.062 25.9365 37.125 22.3526 37.125 18.6863C37.1194 13.7718 35.208 9.06021 31.8101 5.58511C28.4122 2.11001 23.8053 0.155166 19 0.149414ZM5.87501 18.6863C5.87501 15.1263 7.25782 11.712 9.71923 9.19464C12.1806 6.67729 15.519 5.26305 19 5.26305C22.481 5.26305 25.8194 6.67729 28.2808 9.19464C30.7422 11.712 32.125 15.1263 32.125 18.6863C31.4063 36.4882 6.59376 36.4946 5.87501 18.6863Z" fill="#1E1E1E"/>
<path d="M8.88084 25.0082C10.1814 27.1872 12.1184 28.8932 14.4183 29.8853C13.1555 28.4869 12.2083 26.822 11.6433 25.0082H8.88084ZM18.3746 30.7738V25.0082H12.9558C14.0996 28.2042 16.0808 30.4287 18.3746 30.7738ZM19.6246 25.0082V30.7738C21.9183 30.4287 23.8996 28.2042 25.0433 25.0082H19.6246ZM23.5808 29.8853C25.8807 28.8932 27.8178 27.1872 29.1183 25.0082H26.3558C25.7909 26.822 24.8436 28.4869 23.5808 29.8853ZM29.7871 13.6432H26.7308C27.1416 15.2912 27.3474 16.9857 27.3433 18.6865C27.3485 20.3877 27.1405 22.0826 26.7246 23.7298H29.7871C30.4944 22.1469 30.8605 20.4269 30.8605 18.6865C30.8605 16.9461 30.4944 15.2261 29.7871 13.6432ZM29.1183 12.3647C27.8186 10.1875 25.8841 8.48177 23.5871 7.48762C24.8457 8.88817 25.7905 10.5525 26.3558 12.3647H29.1183ZM19.6246 6.59912V12.3647H25.0433C23.8996 9.16872 21.9183 6.94429 19.6246 6.59912ZM12.9558 12.3647H18.3746V6.59912C16.0808 6.94429 14.0996 9.16872 12.9558 12.3647ZM14.4121 7.48762C12.115 8.48177 10.1806 10.1875 8.88084 12.3647H11.6433C12.2086 10.5525 13.1535 8.88817 14.4121 7.48762ZM10.6558 18.6865C10.6518 16.9857 10.8576 15.2912 11.2683 13.6432H8.21209C7.50476 15.2261 7.13867 16.9461 7.13867 18.6865C7.13867 20.4269 7.50476 22.1469 8.21209 23.7298H11.2746C10.8586 22.0826 10.6507 20.3877 10.6558 18.6865ZM11.9058 18.6865C11.902 20.3897 12.1206 22.0858 12.5558 23.7298H18.3746V13.6432H12.5558C12.1206 15.2872 11.902 16.9833 11.9058 18.6865ZM25.4433 13.6432H19.6246V23.7298H25.4433C26.2996 20.4246 26.2996 16.9484 25.4433 13.6432Z" fill="#1E1E1E"/>
</svg>
