<svg width="36" height="36" viewBox="0 0 36 36" fill="none" xmlns="http://www.w3.org/2000/svg">
<path d="M28.0704 10.6424C27.8362 10.0393 27.5563 9.60848 27.104 9.15614C26.6518 8.70379 26.2211 8.42377 25.6181 8.18952C25.1632 8.01182 24.4795 7.8018 23.2196 7.74526C21.8575 7.68333 21.4484 7.66987 17.9974 7.66987C17.5667 7.66987 17.1817 7.66987 16.8372 7.66987C14.4279 7.66987 13.9676 7.68602 12.7751 7.73987C11.5153 7.79642 10.8316 8.00643 10.3766 8.18414C9.77364 8.41839 9.34293 8.69841 8.8907 9.15075C8.43846 9.60309 8.1585 10.0339 7.92431 10.637C7.74664 11.0921 7.53667 11.776 7.48014 13.036C7.41823 14.3985 7.40477 14.805 7.40477 18.2568C7.40477 21.7086 7.41823 22.1179 7.48014 23.4803C7.53667 24.7404 7.74933 25.4243 7.92431 25.8793C8.1585 26.4825 8.43846 26.9133 8.8907 27.3656C9.34293 27.818 9.77364 28.098 10.3766 28.3322C10.8316 28.5099 11.5153 28.7199 12.7751 28.7792C14.1372 28.8411 14.5464 28.8546 17.9974 28.8546C21.4484 28.8546 21.8575 28.8411 23.2196 28.7792C24.4795 28.7226 25.1632 28.5126 25.6181 28.3349C26.2211 28.1007 26.6518 27.8206 27.104 27.3683C27.5563 26.916 27.8362 26.4879 28.0704 25.8847C28.2481 25.4297 28.4581 24.7458 28.5146 23.4857C28.5765 22.1233 28.59 21.714 28.59 18.2649C28.59 14.8158 28.5765 14.4065 28.5146 13.0441C28.4581 11.784 28.2454 11.1001 28.0704 10.6451V10.6424ZM17.9974 24.902C14.3337 24.902 11.3619 21.9321 11.3619 18.2649C11.3619 14.5977 14.3337 11.6279 17.9974 11.6279C21.661 11.6279 24.6329 14.6004 24.6329 18.2649C24.6329 21.9294 21.6637 24.902 17.9974 24.902ZM24.894 12.9176C24.038 12.9176 23.3435 12.2229 23.3435 11.3667C23.3435 10.5105 24.038 9.8158 24.894 9.8158C25.75 9.8158 26.4445 10.5105 26.4445 11.3667C26.4445 12.2229 25.75 12.9176 24.894 12.9176Z" fill="#1E1E1E"/>
<path d="M17.9973 22.5731C20.376 22.5731 22.3043 20.6443 22.3043 18.2651C22.3043 15.8858 20.376 13.957 17.9973 13.957C15.6186 13.957 13.6903 15.8858 13.6903 18.2651C13.6903 20.6443 15.6186 22.5731 17.9973 22.5731Z" fill="#1E1E1E"/>
<path d="M35.4677 8.34849C35.3573 6.94299 35.1177 5.99792 34.6251 4.999C34.2213 4.18047 33.7745 3.57196 33.1257 2.9473C31.9682 1.84068 30.5523 1.16755 28.8645 0.925223C28.0461 0.806752 27.8846 0.771749 23.7014 0.763672H18.0054C10.6996 0.763672 8.56222 0.771749 8.14767 0.806752C6.64828 0.930608 5.7142 1.16755 4.69935 1.67374C3.91601 2.06416 3.29688 2.51381 2.68851 3.14655C1.57676 4.29894 0.903784 5.71521 0.661514 7.40341C0.54307 8.22194 0.508076 8.38887 0.5 12.5677C0.5 13.9624 0.5 15.796 0.5 18.2569C0.5 25.559 0.508076 27.6942 0.54307 28.1088C0.664205 29.5682 0.893016 30.4863 1.37756 31.4907C2.30357 33.4131 4.07214 34.8563 6.15567 35.3948C6.8771 35.5806 7.6739 35.6829 8.69682 35.7314C9.13021 35.7502 13.5476 35.7637 17.9677 35.7637C22.3878 35.7637 26.8079 35.7583 27.2305 35.7367C28.4149 35.6802 29.1041 35.5887 29.8632 35.3921C31.9602 34.8509 33.6964 33.4293 34.6413 31.4799C35.1151 30.4998 35.3573 29.5467 35.4677 28.1627C35.4919 27.8611 35.5 23.0523 35.5 18.2516C35.5 13.4508 35.4892 8.65005 35.465 8.34849H35.4677ZM30.8403 23.5935C30.7757 24.9694 30.5577 25.9091 30.24 26.7303C29.9089 27.5811 29.4675 28.3 28.7487 29.0189C28.03 29.7378 27.3113 30.1794 26.4606 30.5106C25.6396 30.831 24.6974 31.0491 23.3219 31.111C21.9436 31.1729 21.5048 31.1891 17.9946 31.1891C14.4844 31.1891 14.0456 31.1729 12.6674 31.111C11.2918 31.0491 10.3523 30.831 9.5313 30.5106C8.68066 30.1794 7.96193 29.7378 7.24319 29.0189C6.52446 28.3 6.08299 27.5784 5.75188 26.7303C5.43155 25.9091 5.2162 24.9694 5.15159 23.5935C5.08968 22.2149 5.07353 21.7761 5.07353 18.265C5.07353 14.754 5.08968 14.3151 5.15159 12.9365C5.21351 11.5607 5.43155 10.621 5.75188 9.79975C6.08299 8.94892 6.52446 8.23001 7.24319 7.51111C7.96193 6.79221 8.68336 6.35064 9.5313 6.02215C10.3523 5.70174 11.2918 5.48365 12.6674 5.42172C14.0456 5.35979 14.4871 5.34364 17.9919 5.34364H17.9973C21.5048 5.34364 21.9436 5.35979 23.3219 5.42172C24.6974 5.48365 25.6369 5.70174 26.4606 6.02215C27.3113 6.35064 28.03 6.79221 28.7487 7.51111C29.4675 8.23001 29.9089 8.95161 30.24 9.79975C30.5577 10.621 30.7757 11.5607 30.8403 12.9365C30.9022 14.3151 30.9184 14.7567 30.9184 18.265C30.9184 21.7734 30.9022 22.2149 30.8403 23.5935Z" fill="#1E1E1E"/>
</svg>
